<svg width="14" height="14" viewBox="0 0 14 14" fill="none" xmlns="http://www.w3.org/2000/svg">
<path d="M12.2045 7.1006L0.504202 7.095C0.341077 7.09491 0.215909 7.04447 0.1287 6.94371C0.0413915 6.84285 -0.00226247 6.71081 -0.00226258 6.54759C-0.00216447 6.38446 0.0464003 6.25438 0.143431 6.15735C0.240462 6.06032 0.37054 6.01176 0.533665 6.01166L12.2045 6.00606L7.12434 0.925939C7.01582 0.817417 6.96127 0.689991 6.96068 0.543659C6.96019 0.397426 7.01376 0.27049 7.1214 0.162853C7.22913 0.0551172 7.35705 0.000561733 7.50515 -0.000813202C7.65345 -0.00218815 7.78185 0.0513849 7.89037 0.159906L13.81 6.07957C13.9443 6.21382 14.0114 6.37169 14.0114 6.55318C14.0114 6.73487 13.9443 6.89279 13.8102 7.02694L7.89038 12.9468C7.78185 13.0553 7.65448 13.1098 7.50824 13.1103C7.36191 13.1109 7.23493 13.0573 7.12729 12.9497C7.01955 12.842 6.965 12.7139 6.96362 12.5657C6.96225 12.4176 7.01582 12.2892 7.12434 12.1807L12.2045 7.1006Z" fill="#F8F7E5"/>
</svg>
