<svg width="8" height="25" viewBox="0 0 8 25" fill="none" xmlns="http://www.w3.org/2000/svg">
<path d="M4.03324 -0.353553C3.83798 -0.548816 3.5214 -0.548816 3.32613 -0.353553L0.144154 2.82843C-0.0511086 3.02369 -0.0511086 3.34027 0.144154 3.53553C0.339416 3.7308 0.655998 3.7308 0.85126 3.53553L3.67969 0.707107L6.50811 3.53553C6.70338 3.7308 7.01996 3.7308 7.21522 3.53553C7.41048 3.34027 7.41048 3.02369 7.21522 2.82843L4.03324 -0.353553ZM3.17969 24C3.17969 24.2761 3.40355 24.5 3.67969 24.5C3.95583 24.5 4.17969 24.2761 4.17969 24H3.17969ZM3.17969 0V24H4.17969V0H3.17969Z" fill="#F8F7E5"/>
</svg>
