<svg width="180" height="180" viewBox="0 0 180 180" fill="none" xmlns="http://www.w3.org/2000/svg">
<path d="M7.56037e-06 102.154L3.43243 116.819L54.1111 106.574L14.2344 139.821L23.6231 151.574L64.9131 120.435L43.41 167.545L57.0387 174.074L80.6618 128.27L81.8732 180H97.0163L98.2277 128.471L121.952 174.576L135.58 168.047L114.178 121.138L155.67 152.478L165.059 140.625L125.384 107.578L176.366 117.924L179.798 103.259L129.523 90.6027L180 77.846L176.669 63.1808L125.889 73.4263L165.766 40.1786L156.377 28.4263L115.087 59.5647L136.59 12.4554L122.961 5.92635L99.3382 51.8304L98.1268 6.55787e-06H82.9837L81.7723 51.529L58.1492 5.42412L44.4195 11.9531L65.8216 58.8616L24.3298 27.5223L14.9411 39.375L54.6158 72.4219L3.63434 62.0759L0.302875 76.7411L50.4767 89.3973L7.56037e-06 102.154Z" fill="#B9C814"/>
</svg>
