<svg width="120" height="121" viewBox="0 0 120 121" fill="none" xmlns="http://www.w3.org/2000/svg">
<path d="M119.856 50.9358L117.398 41.2004L83.7362 48.6194L109.93 25.9936L103.535 18.2692L76.3747 39.5054L90.1598 7.85372L80.9994 3.66027L65.786 34.4662L64.3766 -0.00107358L54.2828 0.175114L54.0748 34.5367L37.7248 4.08076L28.7163 8.59134L43.528 39.6099L15.5064 19.203L9.3861 27.2128L36.2164 48.7791L2.11351 42.476L-0.00378838 52.2912L33.6549 60.1425L0.157306 69.2329L2.54857 78.9695L36.2773 71.5493L10.0837 94.1751L16.4786 101.899L43.6388 80.6633L29.8537 112.315L39.0141 116.508L54.2263 85.6355L55.6369 120.17L65.7307 119.994L65.9387 85.632L82.2214 116.089L91.2972 111.577L76.4855 80.5588L104.507 100.966L110.627 92.9559L83.7971 71.3896L117.9 77.6927L119.95 67.8787L86.3586 60.0262L119.856 50.9358Z" fill="#B9C814"/>
</svg>
